<svg
    xmlns="http://www.w3.org/2000/svg"
    viewBox="0 0 408 355.97333"
    height="355.97333"
    width="408"
    version="1.1"
    style="fill: #ffffff;"
>
    <g transform="matrix(1.3333333,0,0,-1.3333333,0,355.97333)">
        <g transform="scale(0.1)">
            <path
                d="m 522.762,2408.35 c 0,-36.55 -29.621,-66.19 -66.207,-66.19 -36.555,0 -66.207,29.64 -66.207,66.19 0,36.62 29.652,66.22 66.207,66.22 36.586,0 66.207,-29.6 66.207,-66.22" />
            <path
                d="m 717.926,2213.16 c 0,-36.58 -29.641,-66.22 -66.223,-66.22 -36.547,0 -66.191,29.64 -66.191,66.22 0,36.59 29.644,66.23 66.191,66.23 36.582,0 66.223,-29.64 66.223,-66.23" />
            <path
                d="m 913.082,1432.48 c 0,-36.64 -29.641,-66.24 -66.207,-66.24 -36.555,0 -66.18,29.6 -66.18,66.24 0,36.5 29.625,66.18 66.18,66.18 36.566,0 66.207,-29.68 66.207,-66.18" />
            <path
                d="m 913.082,2017.97 c 0,-36.54 -29.641,-66.19 -66.207,-66.19 -36.555,0 -66.18,29.65 -66.18,66.19 0,36.62 29.625,66.26 66.18,66.26 36.566,0 66.207,-29.64 66.207,-66.26" />
            <path
                d="m 913.082,2603.58 c 0,-36.62 -29.641,-66.26 -66.207,-66.26 -36.555,0 -66.18,29.64 -66.18,66.26 0,36.51 29.625,66.19 66.18,66.19 36.566,0 66.207,-29.68 66.207,-66.19" />
            <path
                d="m 1303.45,261.379 c 0,-36.578 -29.66,-66.188 -66.24,-66.188 -36.54,0 -66.19,29.61 -66.19,66.188 0,36.582 29.65,66.262 66.19,66.262 36.58,0 66.24,-29.68 66.24,-66.262" />
            <path
                d="m 1303.45,651.73 c 0,-36.589 -29.66,-66.191 -66.24,-66.191 -36.54,0 -66.19,29.602 -66.19,66.191 0,36.579 29.65,66.192 66.19,66.192 36.58,0 66.24,-29.613 66.24,-66.192" />
            <path
                d="m 1303.45,1432.48 c 0,-36.64 -29.66,-66.24 -66.24,-66.24 -36.54,0 -66.19,29.6 -66.19,66.24 0,36.5 29.65,66.18 66.19,66.18 36.58,0 66.24,-29.68 66.24,-66.18" />
            <path
                d="m 1303.45,1822.79 c 0,-36.55 -29.66,-66.24 -66.24,-66.24 -36.54,0 -66.19,29.69 -66.19,66.24 0,36.54 29.65,66.22 66.19,66.22 36.58,0 66.24,-29.68 66.24,-66.22" />
            <path
                d="m 1303.45,2213.16 c 0,-36.58 -29.66,-66.22 -66.24,-66.22 -36.54,0 -66.19,29.64 -66.19,66.22 0,36.59 29.65,66.23 66.19,66.23 36.58,0 66.24,-29.64 66.24,-66.23" />
            <path
                d="m 1303.45,2408.35 c 0,-36.55 -29.66,-66.19 -66.24,-66.19 -36.54,0 -66.19,29.64 -66.19,66.19 0,36.62 29.65,66.22 66.19,66.22 36.58,0 66.24,-29.6 66.24,-66.22" />
            <path
                d="m 1498.61,1237.27 c 0,-36.58 -29.63,-66.23 -66.21,-66.23 -36.56,0 -66.21,29.65 -66.21,66.23 0,36.58 29.65,66.23 66.21,66.23 36.58,0 66.21,-29.65 66.21,-66.23" />
            <path
                d="m 1498.61,2017.97 c 0,-36.54 -29.63,-66.19 -66.21,-66.19 -36.56,0 -66.21,29.65 -66.21,66.19 0,36.62 29.65,66.26 66.21,66.26 36.58,0 66.21,-29.64 66.21,-66.26" />
            <path
                d="m 1693.78,456.57 c 0,-36.539 -29.64,-66.218 -66.23,-66.218 -36.54,0 -66.18,29.679 -66.18,66.218 0,36.59 29.64,66.231 66.18,66.231 36.59,0 66.23,-29.641 66.23,-66.231" />
            <path
                d="m 1693.78,1432.48 c 0,-36.64 -29.64,-66.24 -66.23,-66.24 -36.54,0 -66.18,29.6 -66.18,66.24 0,36.5 29.64,66.18 66.18,66.18 36.59,0 66.23,-29.68 66.23,-66.18" />
            <path
                d="m 1693.78,2408.36 c 0,-36.59 -29.64,-66.23 -66.23,-66.23 -36.54,0 -66.18,29.64 -66.18,66.23 0,36.52 29.64,66.19 66.18,66.19 36.59,0 66.23,-29.67 66.23,-66.19" />
            <path
                d="m 1693.78,2603.58 c 0,-36.62 -29.64,-66.26 -66.23,-66.26 -36.54,0 -66.18,29.64 -66.18,66.26 0,36.51 29.64,66.19 66.18,66.19 36.59,0 66.23,-29.68 66.23,-66.19" />
            <path
                d="m 1888.95,1822.83 c 0,-36.56 -29.65,-66.2 -66.22,-66.2 -36.54,0 -66.19,29.64 -66.19,66.2 0,36.57 29.65,66.21 66.19,66.21 36.57,0 66.22,-29.64 66.22,-66.21" />
            <path
                d="m 2084.15,261.379 c 0,-36.578 -29.67,-66.188 -66.26,-66.188 -36.53,0 -66.18,29.61 -66.18,66.188 0,36.582 29.65,66.262 66.18,66.262 36.59,0 66.26,-29.68 66.26,-66.262" />
            <path
                d="m 2084.15,651.73 c 0,-36.589 -29.67,-66.191 -66.26,-66.191 -36.53,0 -66.18,29.602 -66.18,66.191 0,36.579 29.65,66.192 66.18,66.192 36.59,0 66.26,-29.613 66.26,-66.192" />
            <path
                d="m 2084.15,1237.27 c 0,-36.58 -29.67,-66.23 -66.26,-66.23 -36.53,0 -66.18,29.65 -66.18,66.23 0,36.58 29.65,66.23 66.18,66.23 36.59,0 66.26,-29.65 66.26,-66.23" />
            <path
                d="m 2084.15,2408.36 c 0,-36.59 -29.67,-66.23 -66.26,-66.23 -36.53,0 -66.18,29.64 -66.18,66.23 0,36.52 29.65,66.19 66.18,66.19 36.59,0 66.26,-29.67 66.26,-66.19" />
            <path
                d="m 2474.48,1042.12 c 0,-36.55 -29.66,-66.229 -66.23,-66.229 -36.55,0 -66.19,29.679 -66.19,66.229 0,36.54 29.64,66.22 66.19,66.22 36.57,0 66.23,-29.68 66.23,-66.22" />
            <path
                d="m 2669.63,261.379 c 0,-36.578 -29.64,-66.188 -66.22,-66.188 -36.55,0 -66.17,29.61 -66.17,66.188 0,36.582 29.62,66.262 66.17,66.262 36.58,0 66.22,-29.68 66.22,-66.262" />
            <path
                d="m 2669.63,456.57 c 0,-36.539 -29.64,-66.218 -66.22,-66.218 -36.55,0 -66.17,29.679 -66.17,66.218 0,36.59 29.62,66.231 66.17,66.231 36.58,0 66.22,-29.641 66.22,-66.231" />
            <path
                d="m 2864.81,651.73 c 0,-36.589 -29.65,-66.191 -66.22,-66.191 -36.58,0 -66.18,29.602 -66.18,66.191 0,36.579 29.6,66.192 66.18,66.192 36.57,0 66.22,-29.613 66.22,-66.192" />
            <path
                d="m 327.59,2603.58 c 0,-36.62 -29.637,-66.26 -66.219,-66.26 -36.547,0 -66.195,29.64 -66.195,66.26 0,36.51 29.648,66.19 66.195,66.19 36.582,0 66.219,-29.68 66.219,-66.19" />
            <path
                d="m 717.926,2017.97 c 0,-36.54 -29.641,-66.19 -66.223,-66.19 -36.547,0 -66.191,29.65 -66.191,66.19 0,36.62 29.644,66.26 66.191,66.26 36.582,0 66.223,-29.64 66.223,-66.26" />
            <path
                d="m 717.926,2408.35 c 0,-36.55 -29.641,-66.19 -66.223,-66.19 -36.547,0 -66.191,29.64 -66.191,66.19 0,36.62 29.644,66.22 66.191,66.22 36.582,0 66.223,-29.6 66.223,-66.22" />
            <path
                d="m 913.082,1822.79 c 0,-36.55 -29.641,-66.24 -66.207,-66.24 -36.555,0 -66.18,29.69 -66.18,66.24 0,36.54 29.625,66.22 66.18,66.22 36.566,0 66.207,-29.68 66.207,-66.22" />
            <path
                d="m 913.082,2408.35 c 0,-36.55 -29.641,-66.19 -66.207,-66.19 -36.555,0 -66.18,29.64 -66.18,66.19 0,36.62 29.625,66.22 66.18,66.22 36.566,0 66.207,-29.6 66.207,-66.22" />
            <path
                d="m 1108.29,1432.48 c 0,-36.64 -29.66,-66.24 -66.26,-66.24 -36.53,0 -66.167,29.6 -66.167,66.24 0,36.5 29.637,66.18 66.167,66.18 36.6,0 66.26,-29.68 66.26,-66.18" />
            <path
                d="m 1108.29,1822.83 c 0,-36.56 -29.66,-66.2 -66.26,-66.2 -36.53,0 -66.167,29.64 -66.167,66.2 0,36.57 29.637,66.21 66.167,66.21 36.6,0 66.26,-29.64 66.26,-66.21" />
            <path
                d="m 1108.29,2017.97 c 0,-36.54 -29.66,-66.19 -66.26,-66.19 -36.53,0 -66.167,29.65 -66.167,66.19 0,36.62 29.637,66.26 66.167,66.26 36.6,0 66.26,-29.64 66.26,-66.26" />
            <path
                d="m 1108.29,2213.16 c 0,-36.58 -29.66,-66.22 -66.26,-66.22 -36.53,0 -66.167,29.64 -66.167,66.22 0,36.59 29.637,66.23 66.167,66.23 36.6,0 66.26,-29.64 66.26,-66.23" />
            <path
                d="m 1108.29,2603.58 c 0,-36.62 -29.66,-66.26 -66.26,-66.26 -36.53,0 -66.167,29.64 -66.167,66.26 0,36.51 29.637,66.19 66.167,66.19 36.6,0 66.26,-29.68 66.26,-66.19" />
            <path
                d="m 1303.45,846.922 c 0,-36.543 -29.66,-66.231 -66.24,-66.231 -36.54,0 -66.19,29.688 -66.19,66.231 0,36.59 29.65,66.187 66.19,66.187 36.58,0 66.24,-29.597 66.24,-66.187" />
            <path
                d="m 1303.45,1042.12 c 0,-36.55 -29.66,-66.229 -66.24,-66.229 -36.54,0 -66.19,29.679 -66.19,66.229 0,36.54 29.65,66.22 66.19,66.22 36.58,0 66.24,-29.68 66.24,-66.22" />
            <path
                d="m 1303.45,1237.27 c 0,-36.58 -29.66,-66.23 -66.24,-66.23 -36.54,0 -66.19,29.65 -66.19,66.23 0,36.58 29.65,66.23 66.19,66.23 36.58,0 66.24,-29.65 66.24,-66.23" />
            <path
                d="m 1498.61,651.73 c 0,-36.589 -29.63,-66.191 -66.21,-66.191 -36.56,0 -66.21,29.602 -66.21,66.191 0,36.579 29.65,66.192 66.21,66.192 36.58,0 66.21,-29.613 66.21,-66.192" />
            <path
                d="m 1498.61,846.922 c 0,-36.543 -29.63,-66.231 -66.21,-66.231 -36.56,0 -66.21,29.688 -66.21,66.231 0,36.59 29.65,66.187 66.21,66.187 36.58,0 66.21,-29.597 66.21,-66.187" />
            <path
                d="m 1498.61,1627.61 c 0,-36.56 -29.63,-66.21 -66.21,-66.21 -36.56,0 -66.21,29.65 -66.21,66.21 0,36.6 29.65,66.21 66.21,66.21 36.58,0 66.21,-29.61 66.21,-66.21" />
            <path
                d="m 1498.61,1822.83 c 0,-36.56 -29.63,-66.2 -66.21,-66.2 -36.56,0 -66.21,29.64 -66.21,66.2 0,36.57 29.65,66.21 66.21,66.21 36.58,0 66.21,-29.64 66.21,-66.21" />
            <path
                d="m 1498.61,2408.36 c 0,-36.59 -29.63,-66.23 -66.21,-66.23 -36.56,0 -66.21,29.64 -66.21,66.23 0,36.52 29.65,66.19 66.21,66.19 36.58,0 66.21,-29.67 66.21,-66.19" />
            <path
                d="m 1693.78,1042.12 c 0,-36.55 -29.64,-66.229 -66.23,-66.229 -36.54,0 -66.18,29.679 -66.18,66.229 0,36.54 29.64,66.22 66.18,66.22 36.59,0 66.23,-29.68 66.23,-66.22" />
            <path
                d="m 1693.78,1627.61 c 0,-36.56 -29.64,-66.21 -66.23,-66.21 -36.54,0 -66.18,29.65 -66.18,66.21 0,36.6 29.64,66.21 66.18,66.21 36.59,0 66.23,-29.61 66.23,-66.21" />
            <path
                d="m 1888.95,651.73 c 0,-36.589 -29.65,-66.191 -66.22,-66.191 -36.54,0 -66.19,29.602 -66.19,66.191 0,36.579 29.65,66.192 66.19,66.192 36.57,0 66.22,-29.613 66.22,-66.192" />
            <path
                d="m 1888.95,1042.12 c 0,-36.55 -29.65,-66.229 -66.22,-66.229 -36.54,0 -66.19,29.679 -66.19,66.229 0,36.54 29.65,66.22 66.19,66.22 36.57,0 66.22,-29.68 66.22,-66.22" />
            <path
                d="m 1888.95,1237.27 c 0,-36.58 -29.65,-66.23 -66.22,-66.23 -36.54,0 -66.19,29.65 -66.19,66.23 0,36.58 29.65,66.23 66.19,66.23 36.57,0 66.22,-29.65 66.22,-66.23" />
            <path
                d="m 1888.95,1432.48 c 0,-36.64 -29.65,-66.24 -66.22,-66.24 -36.54,0 -66.19,29.6 -66.19,66.24 0,36.5 29.65,66.18 66.19,66.18 36.57,0 66.22,-29.68 66.22,-66.18" />
            <path
                d="m 1888.95,2017.97 c 0,-36.54 -29.65,-66.19 -66.22,-66.19 -36.54,0 -66.19,29.65 -66.19,66.19 0,36.62 29.65,66.26 66.19,66.26 36.57,0 66.22,-29.64 66.22,-66.26" />
            <path
                d="m 1888.95,2213.16 c 0,-36.58 -29.65,-66.22 -66.22,-66.22 -36.54,0 -66.19,29.64 -66.19,66.22 0,36.59 29.65,66.23 66.19,66.23 36.57,0 66.22,-29.64 66.22,-66.23" />
            <path
                d="m 1888.95,2603.58 c 0,-36.62 -29.65,-66.26 -66.22,-66.26 -36.54,0 -66.19,29.64 -66.19,66.26 0,36.51 29.65,66.19 66.19,66.19 36.57,0 66.22,-29.68 66.22,-66.19" />
            <path
                d="m 2084.15,1042.12 c 0,-36.55 -29.67,-66.229 -66.26,-66.229 -36.53,0 -66.18,29.679 -66.18,66.229 0,36.54 29.65,66.22 66.18,66.22 36.59,0 66.26,-29.68 66.26,-66.22" />
            <path
                d="m 2084.15,1627.61 c 0,-36.56 -29.67,-66.21 -66.26,-66.21 -36.53,0 -66.18,29.65 -66.18,66.21 0,36.6 29.65,66.21 66.18,66.21 36.59,0 66.26,-29.61 66.26,-66.21" />
            <path
                d="m 2084.15,1822.83 c 0,-36.56 -29.67,-66.2 -66.26,-66.2 -36.53,0 -66.18,29.64 -66.18,66.2 0,36.57 29.65,66.21 66.18,66.21 36.59,0 66.26,-29.64 66.26,-66.21" />
            <path
                d="m 2084.15,2213.16 c 0,-36.58 -29.67,-66.22 -66.26,-66.22 -36.53,0 -66.18,29.64 -66.18,66.22 0,36.59 29.65,66.23 66.18,66.23 36.59,0 66.26,-29.64 66.26,-66.23" />
            <path
                d="m 2279.3,456.57 c 0,-36.539 -29.64,-66.218 -66.23,-66.218 -36.53,0 -66.18,29.679 -66.18,66.218 0,36.59 29.65,66.231 66.18,66.231 36.59,0 66.23,-29.641 66.23,-66.231" />
            <path
                d="m 2279.3,1042.12 c 0,-36.55 -29.64,-66.229 -66.23,-66.229 -36.53,0 -66.18,29.679 -66.18,66.229 0,36.54 29.65,66.22 66.18,66.22 36.59,0 66.23,-29.68 66.23,-66.22" />
            <path
                d="m 2474.48,456.57 c 0,-36.539 -29.66,-66.218 -66.23,-66.218 -36.55,0 -66.19,29.679 -66.19,66.218 0,36.59 29.64,66.231 66.19,66.231 36.57,0 66.23,-29.641 66.23,-66.231" />
            <path
                d="m 2669.63,651.73 c 0,-36.589 -29.64,-66.191 -66.22,-66.191 -36.55,0 -66.17,29.602 -66.17,66.191 0,36.579 29.62,66.192 66.17,66.192 36.58,0 66.22,-29.613 66.22,-66.192" />
            <path
                d="m 2864.81,261.379 c 0,-36.578 -29.65,-66.188 -66.22,-66.188 -36.58,0 -66.18,29.61 -66.18,66.188 0,36.582 29.6,66.262 66.18,66.262 36.57,0 66.22,-29.68 66.22,-66.262" />
            <path
                d="m 3060,456.57 c 0,-36.539 -29.66,-66.218 -66.24,-66.218 -36.57,0 -66.2,29.679 -66.2,66.218 0,36.59 29.63,66.231 66.2,66.231 36.58,0 66.24,-29.641 66.24,-66.231" />
            <path
                d="m 522.762,1042.12 c 0,-36.55 -29.621,-66.229 -66.207,-66.229 -36.555,0 -66.207,29.679 -66.207,66.229 0,36.54 29.652,66.22 66.207,66.22 36.586,0 66.207,-29.68 66.207,-66.22" />
            <path
                d="m 522.762,1237.27 c 0,-36.58 -29.621,-66.23 -66.207,-66.23 -36.555,0 -66.207,29.65 -66.207,66.23 0,36.58 29.652,66.23 66.207,66.23 36.586,0 66.207,-29.65 66.207,-66.23" />
            <path
                d="m 522.762,2603.58 c 0,-36.62 -29.621,-66.26 -66.207,-66.26 -36.555,0 -66.207,29.64 -66.207,66.26 0,36.51 29.652,66.19 66.207,66.19 36.586,0 66.207,-29.68 66.207,-66.19" />
            <path
                d="m 913.082,2213.16 c 0,-36.58 -29.641,-66.22 -66.207,-66.22 -36.555,0 -66.18,29.64 -66.18,66.22 0,36.59 29.625,66.23 66.18,66.23 36.566,0 66.207,-29.64 66.207,-66.23" />
            <path
                d="m 1108.29,1237.27 c 0,-36.58 -29.66,-66.23 -66.26,-66.23 -36.53,0 -66.167,29.65 -66.167,66.23 0,36.58 29.637,66.23 66.167,66.23 36.6,0 66.26,-29.65 66.26,-66.23" />
            <path
                d="m 1108.29,1627.61 c 0,-36.56 -29.66,-66.21 -66.26,-66.21 -36.53,0 -66.167,29.65 -66.167,66.21 0,36.6 29.637,66.21 66.167,66.21 36.6,0 66.26,-29.61 66.26,-66.21" />
            <path
                d="m 1108.29,2408.35 c 0,-36.55 -29.66,-66.19 -66.26,-66.19 -36.53,0 -66.167,29.64 -66.167,66.19 0,36.62 29.637,66.22 66.167,66.22 36.6,0 66.26,-29.6 66.26,-66.22" />
            <path
                d="M 1498.61,66.2188 C 1498.61,29.6797 1468.98,0 1432.4,0 c -36.56,0 -66.21,29.6797 -66.21,66.2188 0,36.5902 29.65,66.1912 66.21,66.1912 36.58,0 66.21,-29.601 66.21,-66.1912" />
            <path
                d="m 1498.61,2213.16 c 0,-36.58 -29.63,-66.22 -66.21,-66.22 -36.56,0 -66.21,29.64 -66.21,66.22 0,36.59 29.65,66.23 66.21,66.23 36.58,0 66.21,-29.64 66.21,-66.23" />
            <path
                d="m 1498.61,2603.58 c 0,-36.62 -29.63,-66.26 -66.21,-66.26 -36.56,0 -66.21,29.64 -66.21,66.26 0,36.51 29.65,66.19 66.21,66.19 36.58,0 66.21,-29.68 66.21,-66.19" />
            <path
                d="m 1693.78,651.73 c 0,-36.589 -29.64,-66.191 -66.23,-66.191 -36.54,0 -66.18,29.602 -66.18,66.191 0,36.579 29.64,66.192 66.18,66.192 36.59,0 66.23,-29.613 66.23,-66.192" />
            <path
                d="m 1693.78,1237.27 c 0,-36.58 -29.64,-66.23 -66.23,-66.23 -36.54,0 -66.18,29.65 -66.18,66.23 0,36.58 29.64,66.23 66.18,66.23 36.59,0 66.23,-29.65 66.23,-66.23" />
            <path
                d="m 1693.78,2017.97 c 0,-36.54 -29.64,-66.19 -66.23,-66.19 -36.54,0 -66.18,29.65 -66.18,66.19 0,36.62 29.64,66.26 66.18,66.26 36.59,0 66.23,-29.64 66.23,-66.26" />
            <path
                d="m 1888.95,846.922 c 0,-36.543 -29.65,-66.231 -66.22,-66.231 -36.54,0 -66.19,29.688 -66.19,66.231 0,36.59 29.65,66.187 66.19,66.187 36.57,0 66.22,-29.597 66.22,-66.187" />
            <path
                d="m 1888.95,2408.36 c 0,-36.59 -29.65,-66.23 -66.22,-66.23 -36.54,0 -66.19,29.64 -66.19,66.23 0,36.52 29.65,66.19 66.19,66.19 36.57,0 66.22,-29.67 66.22,-66.19" />
            <path
                d="m 2084.15,1432.48 c 0,-36.64 -29.67,-66.24 -66.26,-66.24 -36.53,0 -66.18,29.6 -66.18,66.24 0,36.5 29.65,66.18 66.18,66.18 36.59,0 66.26,-29.68 66.26,-66.18" />
            <path
                d="m 2084.15,2017.97 c 0,-36.54 -29.67,-66.19 -66.26,-66.19 -36.53,0 -66.18,29.65 -66.18,66.19 0,36.62 29.65,66.26 66.18,66.26 36.59,0 66.26,-29.64 66.26,-66.26" />
            <path
                d="m 2084.15,2603.58 c 0,-36.62 -29.67,-66.26 -66.26,-66.26 -36.53,0 -66.18,29.64 -66.18,66.26 0,36.51 29.65,66.19 66.18,66.19 36.59,0 66.26,-29.68 66.26,-66.19" />
            <path
                d="m 2279.3,261.379 c 0,-36.578 -29.64,-66.188 -66.23,-66.188 -36.53,0 -66.18,29.61 -66.18,66.188 0,36.582 29.65,66.262 66.18,66.262 36.59,0 66.23,-29.68 66.23,-66.262" />
            <path
                d="m 2279.3,846.922 c 0,-36.543 -29.64,-66.231 -66.23,-66.231 -36.53,0 -66.18,29.688 -66.18,66.231 0,36.59 29.65,66.187 66.18,66.187 36.59,0 66.23,-29.597 66.23,-66.187" />
            <path
                d="m 2669.63,846.922 c 0,-36.543 -29.64,-66.231 -66.22,-66.231 -36.55,0 -66.17,29.688 -66.17,66.231 0,36.59 29.62,66.187 66.17,66.187 36.58,0 66.22,-29.597 66.22,-66.187" />
            <path
                d="m 1303.45,1627.61 c 0,-36.56 -29.66,-66.21 -66.24,-66.21 -36.54,0 -66.19,29.65 -66.19,66.21 0,36.6 29.65,66.21 66.19,66.21 36.58,0 66.24,-29.61 66.24,-66.21" />
            <path
                d="m 2084.15,846.922 c 0,-36.543 -29.67,-66.231 -66.26,-66.231 -36.53,0 -66.18,29.688 -66.18,66.231 0,36.59 29.65,66.187 66.18,66.187 36.59,0 66.26,-29.597 66.26,-66.187" />
            <path
                d="m 1498.61,1042.12 c 0,-36.55 -29.63,-66.229 -66.21,-66.229 -36.56,0 -66.21,29.679 -66.21,66.229 0,36.54 29.65,66.22 66.21,66.22 36.58,0 66.21,-29.68 66.21,-66.22" />
            <path
                d="m 1888.95,261.379 c 0,-36.578 -29.65,-66.188 -66.22,-66.188 -36.54,0 -66.19,29.61 -66.19,66.188 0,36.582 29.65,66.262 66.19,66.262 36.57,0 66.22,-29.68 66.22,-66.262" />
            <path
                d="m 1108.29,456.57 c 0,-36.539 -29.66,-66.218 -66.26,-66.218 -36.53,0 -66.167,29.679 -66.167,66.218 0,36.59 29.637,66.231 66.167,66.231 36.6,0 66.26,-29.641 66.26,-66.231" />
            <path
                d="m 1693.78,1822.83 c 0,-36.56 -29.64,-66.2 -66.23,-66.2 -36.54,0 -66.18,29.64 -66.18,66.2 0,36.57 29.64,66.21 66.18,66.21 36.59,0 66.23,-29.64 66.23,-66.21" />
            <path
                d="M 1693.78,66.2188 C 1693.78,29.6797 1664.14,0 1627.55,0 c -36.54,0 -66.18,29.6797 -66.18,66.2188 0,36.5902 29.64,66.1912 66.18,66.1912 36.59,0 66.23,-29.601 66.23,-66.1912" />
            <path
                d="m 2864.81,456.57 c 0,-36.539 -29.65,-66.218 -66.22,-66.218 -36.58,0 -66.18,29.679 -66.18,66.218 0,36.59 29.6,66.231 66.18,66.231 36.57,0 66.22,-29.641 66.22,-66.231" />
            <path
                d="m 1108.29,1042.12 c 0,-36.55 -29.66,-66.229 -66.26,-66.229 -36.53,0 -66.167,29.679 -66.167,66.229 0,36.54 29.637,66.22 66.167,66.22 36.6,0 66.26,-29.68 66.26,-66.22" />
            <path
                d="m 1693.78,2213.16 c 0,-36.58 -29.64,-66.22 -66.23,-66.22 -36.54,0 -66.18,29.64 -66.18,66.22 0,36.59 29.64,66.23 66.18,66.23 36.59,0 66.23,-29.64 66.23,-66.23" />
            <path
                d="m 1888.95,456.57 c 0,-36.539 -29.65,-66.218 -66.22,-66.218 -36.54,0 -66.19,29.679 -66.19,66.218 0,36.59 29.65,66.231 66.19,66.231 36.57,0 66.22,-29.641 66.22,-66.231" />
            <path
                d="m 2474.48,651.73 c 0,-36.589 -29.66,-66.191 -66.23,-66.191 -36.55,0 -66.19,29.602 -66.19,66.191 0,36.579 29.64,66.192 66.19,66.192 36.57,0 66.23,-29.613 66.23,-66.192" />
            <path
                d="m 913.082,1627.61 c 0,-36.56 -29.641,-66.21 -66.207,-66.21 -36.555,0 -66.18,29.65 -66.18,66.21 0,36.6 29.625,66.21 66.18,66.21 36.566,0 66.207,-29.61 66.207,-66.21" />
            <path
                d="m 1303.45,2603.58 c 0,-36.62 -29.66,-66.26 -66.24,-66.26 -36.54,0 -66.19,29.64 -66.19,66.26 0,36.51 29.65,66.19 66.19,66.19 36.58,0 66.24,-29.68 66.24,-66.19" />
            <path
                d="m 1303.45,2017.97 c 0,-36.54 -29.66,-66.19 -66.24,-66.19 -36.54,0 -66.19,29.65 -66.19,66.19 0,36.62 29.65,66.26 66.19,66.26 36.58,0 66.24,-29.64 66.24,-66.26" />
            <path
                d="m 2279.3,651.73 c 0,-36.589 -29.64,-66.191 -66.23,-66.191 -36.53,0 -66.18,29.602 -66.18,66.191 0,36.579 29.65,66.192 66.18,66.192 36.59,0 66.23,-29.613 66.23,-66.192" />
            <path
                d="m 2474.48,261.379 c 0,-36.578 -29.66,-66.188 -66.23,-66.188 -36.55,0 -66.19,29.61 -66.19,66.188 0,36.582 29.64,66.262 66.19,66.262 36.57,0 66.23,-29.68 66.23,-66.262" />
            <path
                d="m 1498.61,261.379 c 0,-36.578 -29.63,-66.188 -66.21,-66.188 -36.56,0 -66.21,29.61 -66.21,66.188 0,36.582 29.65,66.262 66.21,66.262 36.58,0 66.21,-29.68 66.21,-66.262" />
            <path
                d="m 1693.78,846.922 c 0,-36.543 -29.64,-66.231 -66.23,-66.231 -36.54,0 -66.18,29.688 -66.18,66.231 0,36.59 29.64,66.187 66.18,66.187 36.59,0 66.23,-29.597 66.23,-66.187" />
            <path
                d="m 717.926,846.922 c 0,-36.543 -29.641,-66.231 -66.223,-66.231 -36.547,0 -66.191,29.688 -66.191,66.231 0,36.59 29.644,66.187 66.191,66.187 36.582,0 66.223,-29.597 66.223,-66.187" />
            <path
                d="m 132.414,2603.58 c 0,-36.62 -29.625,-66.26 -66.207,-66.26 -36.5351,0 -66.207,29.64 -66.207,66.26 0,36.51 29.6719,66.19 66.207,66.19 36.582,0 66.207,-29.68 66.207,-66.19" />
            <path
                d="m 1498.61,1432.48 c 0,-36.64 -29.63,-66.24 -66.21,-66.24 -36.56,0 -66.21,29.6 -66.21,66.24 0,36.5 29.65,66.18 66.21,66.18 36.58,0 66.21,-29.68 66.21,-66.18" />
            <path
                d="m 2474.48,846.922 c 0,-36.543 -29.66,-66.231 -66.23,-66.231 -36.55,0 -66.19,29.688 -66.19,66.231 0,36.59 29.64,66.187 66.19,66.187 36.57,0 66.23,-29.597 66.23,-66.187" />
            <path
                d="m 3060,261.379 c 0,-36.578 -29.66,-66.188 -66.24,-66.188 -36.57,0 -66.2,29.61 -66.2,66.188 0,36.582 29.63,66.262 66.2,66.262 36.58,0 66.24,-29.68 66.24,-66.262" />
            <path
                d="m 2084.15,456.57 c 0,-36.539 -29.67,-66.218 -66.26,-66.218 -36.53,0 -66.18,29.679 -66.18,66.218 0,36.59 29.65,66.231 66.18,66.231 36.59,0 66.26,-29.641 66.26,-66.231" />
            <path
                d="m 1303.45,456.57 c 0,-36.539 -29.66,-66.218 -66.24,-66.218 -36.54,0 -66.19,29.679 -66.19,66.218 0,36.59 29.65,66.231 66.19,66.231 36.58,0 66.24,-29.641 66.24,-66.231" />
            <path
                d="m 1888.95,1627.61 c 0,-36.56 -29.65,-66.21 -66.22,-66.21 -36.54,0 -66.19,29.65 -66.19,66.21 0,36.6 29.65,66.21 66.19,66.21 36.57,0 66.22,-29.61 66.22,-66.21" />
            <path
                d="m 522.762,1432.48 c 0,-36.64 -29.621,-66.24 -66.207,-66.24 -36.555,0 -66.207,29.6 -66.207,66.24 0,36.5 29.652,66.18 66.207,66.18 36.586,0 66.207,-29.68 66.207,-66.18" />
            <path
                d="m 717.926,2603.58 c 0,-36.62 -29.641,-66.26 -66.223,-66.26 -36.547,0 -66.191,29.64 -66.191,66.26 0,36.51 29.644,66.19 66.191,66.19 36.582,0 66.223,-29.68 66.223,-66.19" />
            <path
                d="m 913.082,1237.27 c 0,-36.58 -29.641,-66.23 -66.207,-66.23 -36.555,0 -66.18,29.65 -66.18,66.23 0,36.58 29.625,66.23 66.18,66.23 36.566,0 66.207,-29.65 66.207,-66.23" />
            <path
                d="m 2279.3,1237.27 c 0,-36.58 -29.64,-66.23 -66.23,-66.23 -36.53,0 -66.18,29.65 -66.18,66.23 0,36.58 29.65,66.23 66.18,66.23 36.59,0 66.23,-29.65 66.23,-66.23" />
        </g>
    </g>
</svg>
